<svg height="512" viewBox="0 0 64 64" width="512" xmlns="http://www.w3.org/2000/svg"><g id="Twotone"><g id="Color_copy_2" data-name="Color copy 2"><g fill="#a8dba8"><path d="m39 53h12v8h-12z"/><path d="m51 53h10v8h-10z"/><path d="m39 37h12v8h-12z"/><path d="m27 37h12v8h-12z"/><path d="m34 29h12v8h-12z"/><path d="m22 29h12v8h-12z"/><path d="m51 37h10v8h-10z"/><path d="m39 21h12v8h-12z"/><path d="m27 21h12v8h-12z"/><path d="m11 13h12v8h-12z"/><path d="m23 13h12v8h-12z"/><path d="m3 5h12v8h-12z"/><path d="m15 5h12v8h-12z"/><path d="m15 21h12v8h-12z"/><path d="m45 45h12v8h-12z"/></g><path d="m29 31.441v-.941a5.5 5.5 0 0 0 -5.5-5.5 5.5 5.5 0 0 1 -5.5-5.5v-3.5a6 6 0 0 0 -6-6h-9v51h42l1.952-9.762a8.558 8.558 0 0 0 -8.393-10.238 9.559 9.559 0 0 1 -9.559-9.559z" fill="#fff"/><path d="m45.164 24.177-6.83.625a2 2 0 0 1 -1.816-3.145l3.956-5.6a2 2 0 0 1 3.366.153l2.874 4.979a2 2 0 0 1 -1.55 2.988z" fill="#fff"/><rect fill="#79bd9a" height="6" rx="2" transform="matrix(.866 -.5 .5 .866 3.306 28.072)" width="12" x="48.036" y="4.866"/><path d="m45.16 24.18-6.83.62a2 2 0 0 1 -1.81-3.14l2.78-3.94a3.979 3.979 0 0 0 4.35 3.69l2.51-.23a1.868 1.868 0 0 0 .48-.11l.07.12a2 2 0 0 1 -1.55 2.99z" fill="#cff09e"/><path d="m46.4 53.98-1.4 7.02h-42v-51h5.01a3.98 3.98 0 0 0 2.33 3.47 6 6 0 0 1 3.66 5.53v3.5a5.5 5.5 0 0 0 5.39 5.5 5.575 5.575 0 0 1 5.61 5.66v1.05a9.389 9.389 0 0 0 9.61 9.29 8.556 8.556 0 0 1 8.34 6.88 3.932 3.932 0 0 0 3.45 3.1z" fill="#cff09e"/></g><g id="Stroke_Close_copy" fill="#3b8686" data-name="Stroke Close copy"><path d="m61 46a1 1 0 0 0 1-1v-8a1 1 0 0 0 -1-1h-14v-6h4a1 1 0 0 0 1-1v-8a1 1 0 0 0 -1-1h-3.816l-.554-.96a2.983 2.983 0 0 0 1.177-2.826l-.383-2.651a.993.993 0 0 1 .49-1.007l.56-.324a2.976 2.976 0 0 0 1.821 1.4 3.025 3.025 0 0 0 .781.1 2.986 2.986 0 0 0 1.495-.4l6.929-4a3 3 0 0 0 1.1-4.1l-1-1.732a3 3 0 0 0 -4.1-1.1l-6.93 4a3 3 0 0 0 -1.1 4.1l-.56.323a2.987 2.987 0 0 0 -1.47 3.026l.382 2.65a.99.99 0 0 1 -.219.77l-.9-1.561a3 3 0 0 0 -5.049-.231l-3.19 4.523h-.464v-7a1 1 0 0 0 -1-1h-7v-7a1 1 0 0 0 -1-1h-24a1 1 0 0 0 -1 1v12a1 1 0 0 0 2 0v-6h8a5.006 5.006 0 0 1 5 5v3.5a6.508 6.508 0 0 0 6.5 6.5 4.505 4.505 0 0 1 4.5 4.5v.941a10.571 10.571 0 0 0 10.56 10.559 7.56 7.56 0 0 1 7.412 9.042l-1.952 9.758a1 1 0 0 0 .98 1.2h16a1 1 0 0 0 1-1v-8a1 1 0 0 0 -1-1h-3v-6zm-11.429-37.866 6.929-4a.99.99 0 0 1 .5-.134 1.017 1.017 0 0 1 .261.034 1 1 0 0 1 .606.466l1 1.733a.99.99 0 0 1 .1.758 1 1 0 0 1 -.467.609l-6.929 4a1 1 0 0 1 -.759.1.992.992 0 0 1 -.606-.466l-1-1.732a1 1 0 0 1 .365-1.368zm10.429 35.866h-8v-6h8zm-15-8h-10v-6h10zm-7 3.972a8.512 8.512 0 0 1 -4.929-1.972h4.929zm12-11.972h-10v-2.347l5.255-.48a2.976 2.976 0 0 0 2.711-3.173h2.034zm-12.664-5.767 3.956-5.6a.98.98 0 0 1 .812-.423h.049a.983.983 0 0 1 .821.5l.937 1.623-1.732 1a1 1 0 0 0 1 1.733l1.732-1 .937 1.623a1 1 0 0 1 -.775 1.5l-6.83.624a1 1 0 0 1 -.907-1.573zm-3.336-2.233h-10v-6h10zm-14.949 0a4.342 4.342 0 0 1 -.051-.5v-3.5a6.956 6.956 0 0 0 -.3-2h3.3v6zm-15.051-11v-3h10v3.3a6.956 6.956 0 0 0 -2-.3zm12 1.264v-4.264h10v6h-8.264a7.018 7.018 0 0 0 -1.736-1.736zm3.762 11.736h6.238v2.5a6.464 6.464 0 0 0 -2.5-.5 4.5 4.5 0 0 1 -3.738-2zm8.238 3.821v-3.821h7.267a2.978 2.978 0 0 0 2.733 3.792v2.208h-8.5a6.53 6.53 0 0 0 -1.5-2.179zm1.975 4.179h3.025v6h-1.672a8.5 8.5 0 0 1 -1.328-4.559v-.941c0-.169-.013-.334-.025-.5zm10.025 10.122v-2.122h10v6h-3.682c-.12-.168-.234-.34-.366-.5a9.507 9.507 0 0 0 -5.952-3.378zm7.419 13.878h2.581v6h-3.78zm12.581 6h-8v-6h8zm-4-8h-8.181l.114-.566a9.522 9.522 0 0 0 -.51-5.434h8.577z"/><path d="m37 60h-34a1 1 0 0 0 0 2h34a1 1 0 0 0 0-2z"/></g></g></svg>