<svg xmlns="http://www.w3.org/2000/svg" version="1.1" xmlns:xlink="http://www.w3.org/1999/xlink" xmlns:svgjs="http://svgjs.com/svgjs" width="1440" height="560" preserveAspectRatio="none" viewBox="0 0 1440 560"><g mask="url(&quot;#SvgjsMask1010&quot;)" fill="none"><rect width="1440" height="560" x="0" y="0" fill="rgba(138, 177, 156, 1)"></rect><path d="M1440 0L1091.08 0L1440 231.43z" fill="rgba(255, 255, 255, .1)"></path><path d="M1091.08 0L1440 231.43L1440 412L653.99 0z" fill="rgba(255, 255, 255, .075)"></path><path d="M653.99 0L1440 412L1440 445.90999999999997L366.87 0z" fill="rgba(255, 255, 255, .05)"></path><path d="M366.8699999999999 0L1440 445.90999999999997L1440 523.66L356.8799999999999 0z" fill="rgba(255, 255, 255, .025)"></path><path d="M0 560L81.45 560L0 450.88z" fill="rgba(0, 0, 0, .1)"></path><path d="M0 450.88L81.45 560L412.76 560L0 306.63z" fill="rgba(0, 0, 0, .075)"></path><path d="M0 306.63L412.76 560L1004.43 560L0 122.75999999999999z" fill="rgba(0, 0, 0, .05)"></path><path d="M0 122.75999999999999L1004.43 560L1275.9299999999998 560L0 57.03999999999999z" fill="rgba(0, 0, 0, .025)"></path></g><defs><mask id="SvgjsMask1010"><rect width="1440" height="560" fill="#ffffff"></rect></mask></defs></svg>